<svg width="104" height="104" viewBox="0 0 104 104" fill="none" xmlns="http://www.w3.org/2000/svg">
<circle cx="52" cy="52" r="52" fill="#12C524"/>
<path d="M63.5602 38.8046L58.3138 52.9434L50.4069 41.0613L52.602 34.922C53.3235 32.6686 53.4632 30.8969 53.0072 29.793L53.0061 29.7903C52.8538 29.4279 52.3928 28.3307 49.9611 27.4143C48.9069 27.0171 47.9292 26.776 47.0547 26.6935C46.5841 26.6515 46.1778 26.7334 45.7459 26.9611C45.377 27.1566 44.7759 27.6152 44.0217 28.6892C43.2441 29.7943 42.4405 31.4591 41.634 33.6327L31.031 62.2073L17 66.5949L30.6062 29.927C31.8069 26.6911 33.11 24.0952 34.5818 21.9931C36.1708 19.724 37.9938 17.9853 40.0023 16.8223C42.1222 15.5937 44.4498 14.9772 46.9114 15.0006C49.126 15.0187 51.5217 15.5072 54.0288 16.452C56.3174 17.3145 58.3 18.5117 59.924 20.004C61.5958 21.5382 62.877 23.3474 63.7216 25.3745C64.5693 27.3828 64.9803 29.5771 64.9396 31.8919C64.9018 34.1122 64.4407 36.4319 63.5602 38.8046Z" fill="#F4F4F4"/>
<path d="M88 36.4038L74.3938 73.0717C73.1931 76.3076 71.8931 78.9046 70.4182 81.0056C68.8327 83.276 67.0062 85.0134 64.9998 86.1812C62.8812 87.4063 60.5537 88.0228 58.0921 87.9994C55.8771 87.9812 53.4818 87.4928 50.9743 86.5478C48.6861 85.6855 46.6997 84.4868 45.0791 82.9958C43.4042 81.4605 42.1264 79.6526 41.2784 77.6242C40.4342 75.6172 40.0231 73.4229 40.0617 71.1034C40.1013 68.8877 40.5641 66.5647 41.4433 64.1954L46.6897 50.0566L54.5967 61.9383L52.3977 68.0766C51.6799 70.3314 51.5403 72.1031 51.9976 73.2035C52.1474 73.5666 52.6056 74.6634 55.0434 75.5821C56.0944 75.9782 57.0743 76.224 57.9453 76.3052C58.4156 76.347 58.8218 76.2651 59.2572 76.0388C59.6262 75.8433 60.2237 75.3834 60.9814 74.3107C61.7605 73.2018 62.5629 71.5409 63.3695 69.3673L73.9725 40.7927L88 36.4038Z" fill="#F4F4F4"/>
</svg>
