<svg width="688" height="249" viewBox="0 0 688 249" fill="none" xmlns="http://www.w3.org/2000/svg">
<circle cx="124.5" cy="124.5" r="124.5" fill="#12C524"/>
<path d="M152.178 92.9072L139.617 126.759L120.686 98.3103L125.941 83.6112C127.669 78.2161 128.003 73.9743 126.911 71.3313L126.909 71.3249C126.544 70.4572 125.44 67.8301 119.618 65.6361C117.094 64.685 114.753 64.108 112.66 63.9102C111.533 63.8099 110.56 64.006 109.526 64.5509C108.643 65.019 107.204 66.1171 105.398 68.6885C103.536 71.3343 101.612 75.3204 99.6814 80.5244L74.2953 148.939L40.7019 159.443L73.2782 71.6521C76.153 63.9045 79.2731 57.6894 82.7967 52.6564C86.6011 47.2237 90.9659 43.0608 95.7748 40.2764C100.85 37.3349 106.423 35.8588 112.317 35.9149C117.619 35.9581 123.355 37.1278 129.357 39.3899C134.837 41.4548 139.584 44.3213 143.472 47.8942C147.475 51.5673 150.542 55.899 152.564 60.7523C154.594 65.5606 155.578 70.8143 155.48 76.3564C155.39 81.6724 154.286 87.2262 152.178 92.9072Z" fill="#F4F4F4"/>
<path d="M210.692 87.1591L178.116 174.95C175.241 182.698 172.129 188.916 168.597 193.946C164.801 199.382 160.428 203.542 155.624 206.338C150.552 209.271 144.979 210.747 139.086 210.691C133.783 210.647 128.048 209.478 122.044 207.215C116.566 205.151 111.81 202.281 107.93 198.711C103.92 195.035 100.86 190.707 98.8299 185.85C96.8087 181.045 95.8246 175.791 95.917 170.238C96.0118 164.933 97.1198 159.371 99.2247 153.698L111.786 119.847L130.717 148.295L125.452 162.991C123.734 168.39 123.399 172.631 124.494 175.266C124.853 176.135 125.95 178.761 131.786 180.961C134.303 181.909 136.649 182.498 138.734 182.692C139.86 182.792 140.833 182.596 141.875 182.054C142.759 181.586 144.189 180.485 146.004 177.917C147.869 175.262 149.79 171.285 151.721 166.081L177.107 97.667L210.692 87.1591Z" fill="#F4F4F4"/>
<path d="M381.17 81.3115C389.772 81.3115 396.269 83.5294 400.661 87.9651C405.098 92.3555 407.316 99.4165 407.316 109.148V158.642H386.535V114.308C386.535 108.876 385.607 104.78 383.75 102.019C381.894 99.258 379.019 97.8775 375.125 97.8775C369.647 97.8775 365.753 99.8464 363.444 103.784C361.135 107.677 359.981 113.267 359.981 120.554V158.642H339.267V114.308C339.267 110.687 338.86 107.654 338.045 105.21C337.23 102.766 335.985 100.933 334.31 99.7107C332.635 98.4886 330.484 97.8775 327.858 97.8775C324.01 97.8775 320.976 98.8507 318.758 100.797C316.584 102.698 315.022 105.527 314.072 109.284C313.166 112.995 312.713 117.544 312.713 122.93V158.642H292V82.7373H307.824L310.608 92.4461H311.763C313.302 89.8209 315.226 87.6935 317.535 86.0641C319.89 84.4346 322.47 83.2352 325.277 82.4657C328.084 81.6963 330.937 81.3115 333.834 81.3115C339.403 81.3115 344.112 82.2168 347.96 84.0273C351.854 85.8378 354.842 88.644 356.925 92.4461H358.758C361.022 88.5535 364.214 85.7246 368.334 83.9594C372.499 82.1942 376.778 81.3115 381.17 81.3115Z" fill="#F4F4F4"/>
<path d="M498.319 82.7373V158.642H482.428L479.643 148.933H478.557C476.927 151.513 474.889 153.618 472.445 155.247C470 156.877 467.306 158.076 464.363 158.846C461.42 159.615 458.364 160 455.195 160C449.762 160 445.03 159.049 441.001 157.148C436.971 155.202 433.825 152.192 431.561 148.119C429.342 144.045 428.233 138.749 428.233 132.232V82.7373H448.947V127.072C448.947 132.503 449.92 136.599 451.867 139.36C453.814 142.121 456.915 143.502 461.171 143.502C465.382 143.502 468.687 142.551 471.086 140.65C473.486 138.704 475.161 135.875 476.112 132.164C477.108 128.407 477.606 123.835 477.606 118.449V82.7373H498.319Z" fill="#F4F4F4"/>
<path d="M573.023 136.102C573.023 141.261 571.801 145.629 569.356 149.205C566.957 152.735 563.357 155.429 558.558 157.284C553.759 159.095 547.783 160 540.629 160C535.332 160 530.782 159.661 526.979 158.982C523.221 158.303 519.418 157.171 515.569 155.587V138.478C519.689 140.334 524.104 141.872 528.812 143.095C533.566 144.271 537.731 144.86 541.308 144.86C545.338 144.86 548.213 144.271 549.933 143.095C551.699 141.872 552.582 140.288 552.582 138.342C552.582 137.075 552.22 135.943 551.495 134.947C550.816 133.906 549.322 132.752 547.013 131.485C544.704 130.172 541.082 128.475 536.147 126.393C531.393 124.401 527.477 122.387 524.398 120.35C521.364 118.313 519.101 115.915 517.607 113.154C516.158 110.347 515.433 106.794 515.433 102.494C515.433 95.4786 518.15 90.2056 523.583 86.6751C529.061 83.0994 536.373 81.3115 545.519 81.3115C550.227 81.3115 554.71 81.7868 558.966 82.7373C563.267 83.6878 567.681 85.2041 572.209 87.2862L565.961 102.223C562.203 100.593 558.649 99.258 555.298 98.217C551.993 97.176 548.62 96.6555 545.179 96.6555C542.146 96.6555 539.859 97.0628 538.32 97.8775C536.781 98.6923 536.011 99.937 536.011 101.612C536.011 102.834 536.396 103.92 537.165 104.871C537.98 105.821 539.52 106.885 541.784 108.062C544.093 109.193 547.466 110.664 551.903 112.475C556.204 114.24 559.939 116.096 563.108 118.042C566.277 119.943 568.722 122.319 570.443 125.171C572.163 127.977 573.023 131.621 573.023 136.102Z" fill="#F4F4F4"/>
<path d="M609.9 82.7373V158.642H589.187V82.7373H609.9ZM599.577 53C602.656 53 605.305 53.7242 607.523 55.1726C609.742 56.5757 610.851 59.2236 610.851 63.1161C610.851 66.9634 609.742 69.6339 607.523 71.1275C605.305 72.5759 602.656 73.3001 599.577 73.3001C596.453 73.3001 593.782 72.5759 591.564 71.1275C589.391 69.6339 588.304 66.9634 588.304 63.1161C588.304 59.2236 589.391 56.5757 591.564 55.1726C593.782 53.7242 596.453 53 599.577 53Z" fill="#F4F4F4"/>
<path d="M662.533 160C655.017 160 648.611 158.642 643.313 155.926C638.016 153.165 633.987 148.911 631.225 143.162C628.463 137.414 627.082 130.059 627.082 121.097C627.082 111.818 628.644 104.26 631.768 98.4207C634.937 92.5366 639.306 88.214 644.875 85.453C650.489 82.692 656.986 81.3115 664.366 81.3115C669.618 81.3115 674.146 81.8321 677.949 82.8731C681.797 83.8689 685.148 85.0683 688 86.4714L681.888 102.494C678.628 101.182 675.595 100.118 672.788 99.3033C669.98 98.4433 667.173 98.0133 664.366 98.0133C660.744 98.0133 657.733 98.8733 655.334 100.593C652.934 102.268 651.146 104.803 649.969 108.197C648.792 111.592 648.203 115.847 648.203 120.961C648.203 125.985 648.837 130.15 650.105 133.454C651.372 136.758 653.206 139.225 655.606 140.854C658.005 142.438 660.925 143.23 664.366 143.23C668.667 143.23 672.493 142.665 675.844 141.533C679.194 140.356 682.454 138.727 685.623 136.645V154.365C682.454 156.356 679.126 157.782 675.64 158.642C672.199 159.547 667.83 160 662.533 160Z" fill="#F4F4F4"/>
</svg>
