<?xml version="1.0" standalone="no"?>
<!DOCTYPE svg PUBLIC "-//W3C//DTD SVG 20010904//EN"
 "http://www.w3.org/TR/2001/REC-SVG-20010904/DTD/svg10.dtd">
<svg version="1.0" xmlns="http://www.w3.org/2000/svg"
 width="700.000000pt" height="700.000000pt" viewBox="0 0 700.000000 700.000000"
 preserveAspectRatio="xMidYMid meet">
<metadata>
Created by potrace 1.14, written by Peter Selinger 2001-2017
</metadata>
<g transform="translate(0.000000,700.000000) scale(0.100000,-0.100000)"
fill="#000000" stroke="none">
<path d="M3285 6994 c-22 -2 -89 -9 -150 -14 -578 -57 -1180 -283 -1660 -625
-236 -169 -527 -443 -709 -670 -413 -516 -664 -1125 -748 -1820 -16 -135 -16
-591 0 -730 74 -626 284 -1178 634 -1669 213 -297 515 -599 815 -814 488 -349
1045 -561 1668 -634 144 -16 586 -16 735 1 689 78 1331 348 1854 779 127 105
340 316 451 447 450 532 722 1170 807 1890 7 62 13 220 13 365 0 145 -6 303
-13 365 -99 844 -447 1558 -1043 2141 -555 542 -1251 875 -2029 970 -118 14
-539 27 -625 18z m35 -1019 c275 -41 533 -159 712 -324 104 -96 168 -182 229
-306 117 -237 140 -520 63 -805 -18 -70 -388 -1086 -398 -1098 -2 -1 -122 177
-268 396 l-265 398 73 204 c92 256 116 344 116 440 1 132 -41 194 -177 256
-130 59 -265 80 -324 49 -57 -29 -130 -124 -191 -248 -38 -78 -195 -487 -430
-1122 -204 -549 -372 -1000 -373 -1001 -7 -6 -932 -292 -935 -289 -5 5 921
2500 975 2625 187 436 442 704 761 800 137 42 274 50 432 25z m2131 -2696
c-513 -1382 -501 -1349 -573 -1493 -153 -307 -354 -523 -581 -626 -114 -51
-201 -71 -338 -77 -156 -7 -283 12 -452 68 -511 167 -807 549 -807 1041 0 227
16 287 251 922 104 280 189 512 189 515 0 3 120 -174 266 -394 l267 -399 -26
-76 c-14 -41 -53 -154 -87 -252 -104 -300 -104 -417 -1 -511 59 -52 169 -100
284 -123 73 -15 82 -15 123 1 66 25 143 117 209 249 33 66 206 517 429 1119
206 555 376 1010 378 1011 7 5 933 293 936 291 1 -1 -209 -571 -467 -1266z"/>
</g>
</svg>
